<svg width="57" height="76" viewBox="0 0 57 76" fill="none" xmlns="http://www.w3.org/2000/svg">
<path d="M30.8208 67.835C29.8546 69.48 27.4758 69.4793 26.5094 67.8338L11.9841 43.1018C11.0051 41.4349 12.2067 39.3358 14.1395 39.3363L43.186 39.3443C45.1188 39.3449 46.3207 41.4447 45.342 43.111L30.8208 67.835Z" fill="#08A6CE" style="mix-blend-mode:saturation"/>
<path d="M30.8208 67.835C29.8546 69.48 27.4758 69.4793 26.5094 67.8338L11.9841 43.1018C11.0051 41.4349 12.2067 39.3358 14.1395 39.3363L43.186 39.3443C45.1188 39.3449 46.3207 41.4447 45.342 43.111L30.8208 67.835Z" stroke="#08A6CE" stroke-width="3"/>
<path d="M29.8808 48.0399C29.2906 49.0209 27.8634 49.0058 27.2941 48.0126L10.4209 18.5765C9.84421 17.5704 10.5785 16.3184 11.7381 16.3306L46.1021 16.6934C47.2617 16.7056 47.9694 17.9729 47.3716 18.9666L29.8808 48.0399Z" fill="#1222B0" style="mix-blend-mode:exclusion"/>
<path d="M29.8808 48.0399C29.2906 49.0209 27.8634 49.0058 27.2941 48.0126L10.4209 18.5765C9.84421 17.5704 10.5785 16.3184 11.7381 16.3306L46.1021 16.6934C47.2617 16.7056 47.9694 17.9729 47.3716 18.9666L29.8808 48.0399Z" stroke="#1222B0" stroke-width="5"/>
</svg>
