<svg width="24" height="24" viewBox="0 0 24 24" fill="none" xmlns="http://www.w3.org/2000/svg">
<path fill-rule="evenodd" clip-rule="evenodd" d="M19.1231 9.80625L13.7396 1.97587L12.0532 3.11587L17.4371 10.944L19.1233 9.804L19.1231 9.80625ZM17.105 11.2237L8.8747 6.40819L7.83745 8.15062L16.0683 12.9645L17.1052 11.2217L17.105 11.2237ZM15.9003 13.5384L6.67307 11.0769L6.14245 13.0312L15.3706 15.4912L15.9003 13.5367V13.5384ZM15.2728 16.1775L5.75807 15.3081L5.57057 17.3237L15.0856 18.1922L15.2728 16.1775ZM21.5 9.33375L19.8656 0L17.8543 0.345937L19.4887 9.68156L21.5 9.33562V9.33375ZM15.0431 20.7962L5.48732 20.8007L5.48657 18.777L15.0419 18.7721L15.0431 20.7962Z" fill="#FF810F"/>
<path fill-rule="evenodd" clip-rule="evenodd" d="M16.6657 14.1394V22.4125H4.13244V14.1394H2.49988V24H18.29V14.1394H16.6657Z" fill="#BEBCBC"/>
</svg>
